<?xml version="1.0" encoding="UTF-8"?>
<svg id="Layer_2" data-name="Layer 2" xmlns="http://www.w3.org/2000/svg" viewBox="0 0 271.2 289.49">
  <defs>
    <style>
      .cls-1 {
        fill: #715745;
        stroke-width: 0px;
      }
    </style>
  </defs>
  <g id="Layer_1-2" data-name="Layer 1">
    <g>
      <path class="cls-1" d="M0,126.77C0,114.61,0,102.45,0,90.29c3.48-2.33,6.96-4.66,10.43-7,6.5-4.38,12.98-8.78,19.49-13.14,6.37-4.27,12.77-8.5,19.15-12.78,6.51-4.37,12.98-8.78,19.49-13.14,6.37-4.27,12.77-8.5,19.15-12.78,6.28-4.21,12.53-8.46,18.81-12.68,9.11-6.11,18.22-12.2,27.34-18.29.99-.66,2.54-.64,3.56.05,1.92,1.29,3.84,2.57,5.75,3.87,4.57,3.1,9.13,6.22,13.72,9.3,8.84,5.94,17.69,11.86,26.53,17.8,4.62,3.1,9.21,6.24,13.83,9.34,9.1,6.11,18.22,12.2,27.32,18.32,8.74,5.88,17.46,11.8,26.2,17.68,6.14,4.13,12.31,8.21,18.45,12.35.74.5,1.33,1.21,1.99,1.82v36h-17.59v107.77c-.65,0-1.17,0-1.69,0-49.02-.08-98.04-.18-147.06-.23-28.36-.03-56.71,0-85.07-.02-.68,0-1.35-.17-2.1-.27v-107.48H0ZM224.4,197.77c0-.38,0-.62,0-.85,0-29.84,0-59.68.03-89.52,0-.78-.38-1.13-.89-1.48-7.39-4.94-14.79-9.86-22.18-14.8-14.92-9.96-29.83-19.93-44.74-29.9-6.81-4.55-13.62-9.09-20.41-13.67-.61-.41-1.05-.45-1.66-.02-2.61,1.8-5.25,3.56-7.88,5.33-6.04,4.07-12.08,8.15-18.13,12.22-5.85,3.93-11.71,7.85-17.57,11.77-5.89,3.94-11.79,7.87-17.67,11.83-8.36,5.61-16.69,11.26-25.08,16.83-.76.5-.95,1.01-.95,1.83.01,29.72.01,59.44.01,89.16v1.27h177.12Z"/>
      <path class="cls-1" d="M115.77,265.27c3.76,0,7.44-.09,11.11.04,1.54.06,3.18.35,4.55,1.01,1.01.49,1.91,1.64,2.39,2.7,1.06,2.35.99,4.84-.7,6.9-1.22,1.48-3.04,2.14-5.04,2.39,3.84,2.65,5.53,6.87,8.17,10.72-1.33,0-2.43.03-3.52-.02-.23-.01-.5-.3-.65-.53-1.45-2.23-2.85-4.49-4.32-6.71-1.49-2.24-3.37-3.76-6.31-3.31-.81.12-1.66.02-2.62.02v10.5h-3.05v-23.7ZM118.86,275.59c3.07,0,6.05.06,9.02-.03,1.51-.05,2.86-1.27,3.16-2.56.59-2.48-.53-4.53-3.11-4.79-2.98-.3-6.01-.07-9.07-.07v7.44Z"/>
      <path class="cls-1" d="M201.76,288.93c-.12.04-.15.06-.19.07-2.11.45-3.4-.41-4.55-2.25-3.26-5.21-6.73-10.28-10.12-15.4-.14-.22-.34-.39-.62-.7v18.28h-2.83v-23.67c.84,0,1.67-.06,2.48.03.31.03.66.34.85.62,2.94,4.3,5.86,8.61,8.79,12.92,1.07,1.57,2.14,3.14,3.4,4.98v-18.49h2.79v23.61Z"/>
      <path class="cls-1" d="M30.45,289.48c-3.21.13-5.95-.89-7.95-3.32-2.56-3.12-3.71-6.68-3.14-10.84.35-2.51,1.21-4.69,2.73-6.62,1.15-1.46,2.65-2.43,4.5-3,1.46-.46,2.87-.71,4.39-.68,3.07.06,5.72,1.22,7.76,3.42,1.92,2.08,2.95,4.67,3.03,7.57.08,2.62-.14,5.14-1.32,7.59-1.28,2.65-3.41,4.16-5.97,5.15-1.25.48-2.67.5-4.02.74ZM30.81,286.6c2.28.57,3.91-.95,5.52-2.39.56-.5,1.02-1.22,1.31-1.92,1.05-2.53,1.25-5.16.76-7.86-.61-3.36-2.93-5.7-6.31-6.52-2-.49-3.8-.19-5.59.93-1.68,1.05-3.06,2.29-3.43,4.25-.33,1.77-.42,3.6-.51,5.4-.2,4.12,3.53,8.78,8.24,8.12Z"/>
      <path class="cls-1" d="M100.07,289.2c-3.23.53-5.81-.84-7.95-3.02-1.93-1.96-2.73-4.54-3.07-7.23-.44-3.44.04-6.76,2.19-9.55,1-1.3,2.37-2.49,3.83-3.24,2.62-1.35,5.48-1.57,8.36-.68,3.84,1.19,6.36,3.65,7.46,7.58.93,3.33.82,6.58-.5,9.77-.89,2.15-2.19,3.91-4.36,5.04-1.91,1-3.8,1.69-5.96,1.33ZM92.21,277.2c-.36,2.66.44,5.07,2.09,7.04,1.86,2.22,4.49,2.74,7.3,2.38.62-.08,1.31-.09,1.81-.38,1.85-1.08,3.5-2.41,4.15-4.58.28-.93.5-1.89.6-2.85.24-2.1.13-4.19-.68-6.17-1.18-2.87-3.53-4.34-6.44-4.95-2.78-.59-6.9,1.73-7.8,4.01-.69,1.77-1.35,3.53-1.05,5.49Z"/>
      <path class="cls-1" d="M71.04,279.43v9.51h-3.04v-23.66c3.56,0,7.1-.07,10.64.04,1.18.04,2.41.38,3.49.87,2.93,1.35,4.1,4.03,3.6,7.24-.31,2.02-1.15,3.76-2.84,4.71-1.34.76-3.01,1.11-4.57,1.24-2.37.2-4.77.05-7.29.05ZM71.09,276.55c2.75,0,5.39.03,8.02-.01,1.3-.02,3.18-1.6,3.4-2.8.11-.62.05-1.27.05-1.91,0-1.73-.64-2.9-2.35-3.14-2.99-.43-6.03-.51-9.12-.75v8.62Z"/>
      <path class="cls-1" d="M48.96,279.43v9.51h-3.04v-23.67c2.02,0,4.05-.06,6.07.02,2.29.09,4.57.26,6.85.47,2.26.21,5.12,3.26,5.07,5.85-.05,2.5-.68,4.58-2.5,6.25-.42.39-1.07.58-1.66.71-1.52.33-3.05.72-4.59.83-2.02.14-4.05.03-6.21.03ZM49.01,276.55c2.29,0,4.44-.05,6.59.02,1.23.04,2.32-.22,3.39-.81,1.29-.72,1.8-1.79,1.74-3.22-.07-1.46-.31-2.88-1.77-3.58-3.2-1.55-6.61-.49-9.95-.85v8.44Z"/>
      <path class="cls-1" d="M174.96,265.32h3.05c.02.34.07.68.07,1.03,0,4.72.09,9.43-.04,14.15-.06,1.92-.19,3.93-1.39,5.61-1.44,2.04-3.49,3.02-5.91,3.13-1.77.08-3.58,0-5.34-.23-2.92-.38-4.61-2.42-5.25-5.32-.52-2.36-.48-4.87-.53-7.31-.08-3.63-.02-7.27-.02-11.01h3.12v1.23c0,4.76.02,9.51,0,14.27-.01,2.37.94,4.25,3.05,5.23,1.08.5,2.45.54,3.68.49,2.21-.09,4.21-.77,5.03-3.14.27-.8.46-1.67.46-2.52.04-4.76.02-9.51.02-14.27v-1.34Z"/>
      <path class="cls-1" d="M55.27,258.69c1.14.58,2.28,1.16,3.5,1.78-.29.59-.56,1.13-.88,1.79-.95-.46-1.98-.75-2.73-1.37-1.12-.92-2.11-.88-3.44-.44-5.06,1.65-10.55-.42-12.13-5.78-.97-3.29-.83-6.57.7-9.68,1.25-2.55,3.41-4.02,6.13-4.67,3.41-.82,6.39.19,8.92,2.46,1.76,1.58,2.63,3.79,2.89,6.04.34,2.95.04,5.92-1.84,8.46-.35.47-.74.92-1.14,1.41ZM53.48,257.2c.51-.98,1.23-1.85,1.43-2.83.34-1.68.56-3.44.49-5.15-.11-2.7-1.49-5.16-4.09-6.21-3.04-1.22-6.51-.13-7.76,1.66-2.09,2.99-2.17,6.24-1.27,9.69.93,3.56,6.25,5.6,8.96,3.73-.87-.32-1.68-.62-2.51-.93.12-.26.26-.47.29-.69.21-1.21.94-1.22,1.81-.78.83.42,1.62.92,2.66,1.52Z"/>
      <path class="cls-1" d="M230.32,260.71c-.32,0-.56-.03-.79,0-1.53.25-2.42-.36-3.27-1.73-2.75-4.46-5.71-8.8-8.59-13.18-.17-.25-.37-.48-.71-.92v15.77h-2.56v-20.34c.66,0,1.33-.07,1.98.03.39.06.88.3,1.09.62,3.21,4.82,6.38,9.67,9.57,14.51.17.25.37.48.71.91v-16.01h2.56v20.34Z"/>
      <path class="cls-1" d="M250.32,252.78h-5.93v-2.39h8.57c0,2.45.01,4.83-.02,7.21,0,.2-.26.42-.44.58-3.02,2.64-6.7,3.27-10.43,2.69-3.46-.54-6.01-2.57-7.14-6.16-1.48-4.66-.74-8.82,2.7-12.27,1.01-1.02,2.59-1.73,4.02-2.03,2.85-.6,5.66-.23,8.21,1.44,1.58,1.03,2.28,2.51,2.65,4.33-.26.05-.47.09-.69.14-1.65.41-1.58.38-2.3-1.1-.9-1.84-2.6-2.52-4.52-2.74-3.75-.44-7.47,2.22-7.95,6.44-.36,3.1.12,5.75,2.22,8.08.97,1.08,2.3,1.39,3.58,1.51,2.45.24,4.92.14,6.98-1.53.23-.19.46-.52.47-.8.05-1.07.02-2.15.02-3.4Z"/>
      <path class="cls-1" d="M154.04,261.01c-4.14.36-8.27-3.01-9.19-6.79-.87-3.54-.58-7.06,1.39-10.12,1.47-2.28,3.88-3.37,6.63-3.84,2.98-.51,5.36.57,7.65,2.2,1.67,1.18,2.39,2.96,2.9,4.83.26.98.52,2.02.46,3.01-.16,2.37-.47,4.68-1.9,6.79-1.33,1.96-3.13,3.01-5.23,3.67-.84.27-1.8.18-2.7.25ZM154.71,258.79c2-.25,4.37-1.04,5.42-3.79.4-1.04.47-2.2.73-3.29.77-3.26-1.12-8.49-5.56-9.07-2.9-.38-5.72.67-7,3.3-1,2.05-1.24,4.2-.98,6.49.41,3.69,3.11,6.36,7.38,6.36Z"/>
      <path class="cls-1" d="M21.21,240.36h14.5v2.3h-11.87v6.26h11.12v2.42h-11.14v6.93h12.35v2.38h-14.96v-20.29Z"/>
      <path class="cls-1" d="M127.64,248.65h10.33v-8.26h2.6v20.26h-2.53v-9.47h-10.33v9.44h-2.84v-20.26h2.77v8.28Z"/>
      <path class="cls-1" d="M202.46,246.27h-2.28c-.78-1.07-1.29-2.25-2.19-2.88-2.04-1.43-5.77-1.34-7.38.86-1.28,1.75-.07,3.4,1.89,3.95,2.06.58,4.22.85,6.24,1.54,1.97.67,3.64,2.04,3.98,4.17.37,2.25-.15,4.32-2.32,5.77-2.34,1.56-4.87,1.34-7.41,1.16-.84-.06-1.69-.32-2.48-.63-2.15-.87-3.02-2.73-3.55-4.82-.09-.34-.13-.69-.2-1.09.32-.02.62-.03.93-.07,1.08-.13,1.73.04,2.05,1.38.41,1.76,2.02,2.64,3.68,2.86,1.46.19,3.02.06,4.46-.27,1.43-.33,2.51-1.34,2.49-2.99-.02-1.3-1.54-2.7-3.18-3.14-2.11-.56-4.27-.97-6.3-1.73-3.51-1.31-4.37-5.37-2.05-7.9,2.07-2.26,4.88-2.66,7.8-2.08,2.3.45,4.36,1.34,5.28,3.76.24.64.34,1.34.54,2.15Z"/>
      <path class="cls-1" d="M75.12,240.36h2.88c0,3.56.05,7.07-.02,10.58-.04,1.73-.22,3.46-.48,5.17-.37,2.44-2.57,4.46-5.17,4.78-1.57.2-3.21.15-4.78-.05-2.8-.35-4.46-2.13-5.13-4.79-.29-1.17-.47-2.4-.48-3.61-.06-3.99-.02-7.99-.02-12.06h2.88v1.29c0,3.88-.04,7.76.03,11.64.02,1,.24,2.03.55,2.98.48,1.46,1.76,2.27,3.32,2.25,1.19-.02,2.44.13,3.55-.18,1.9-.54,2.86-2.28,2.87-4.61.01-4,0-8,0-12v-1.38Z"/>
      <path class="cls-1" d="M99.02,260.66q-3.06.15-3.96-2.52c-.11-.33-.23-.66-.35-.99-.33-.87-.42-2.16-1.05-2.51-.79-.45-2.01-.16-3.05-.17-1.52-.01-3.04.03-4.56-.02-.63-.02-.91.23-1.09.79-.48,1.48-1.06,2.94-1.49,4.44-.25.84-.69,1.14-1.53,1.04-.51-.06-1.04-.01-1.69-.01.99-2.69,1.94-5.31,2.91-7.92,1.39-3.73,2.81-7.45,4.2-11.18.28-.75.48-1.46,1.58-1.33,1.01.12,1.99-.2,2.53,1.22,2.23,5.84,4.59,11.62,6.91,17.42.22.54.41,1.09.65,1.74ZM85.99,252.25h6.73c-1.11-3.11-2.21-6.17-3.36-9.39-1.16,3.23-2.26,6.3-3.37,9.39Z"/>
      <path class="cls-1" d="M167.28,240.36h2.64c0,1.77-.03,3.48,0,5.19.06,3.14.16,6.29.23,9.43.04,1.42,1.94,3.75,3.75,3.58,1.22-.11,2.52.13,3.68-.18,1.9-.51,2.89-2.33,2.9-4.72,0-3.96,0-7.92,0-11.88v-1.39h2.64v4.05c0,3.32.01,6.64,0,9.96-.01,2.67-1.24,4.67-3.58,5.89-.77.4-1.72.59-2.59.62-1.42.05-2.87.03-4.26-.2-3.57-.57-4.9-3.04-5.12-5.59-.25-2.81-.22-5.64-.27-8.46-.04-2.07,0-4.14,0-6.3Z"/>
      <path class="cls-1" d="M255.66,265.27c-1.12,1.66-2.11,3.14-3.12,4.61-1.9,2.78-3.83,5.54-5.69,8.35-.34.52-.58,1.22-.59,1.84-.06,2.95-.03,5.9-.03,8.9h-3.12c0-1.58-.16-3.18.03-4.74.46-3.68-.67-6.72-2.95-9.6-2.15-2.73-3.92-5.76-5.85-8.66-.1-.16-.14-.36-.28-.7,1.13,0,2.19-.05,3.23.03.3.02.65.36.84.64,2.26,3.47,4.5,6.96,6.72,10.41,2.11-3.25,4.31-6.54,6.39-9.9.58-.94,1.23-1.31,2.28-1.19.62.07,1.25.01,2.12.01Z"/>
      <path class="cls-1" d="M148.6,288.98h-3.16v-20.8h-7.84v-2.83h18.57v2.75h-7.57v20.89Z"/>
      <path class="cls-1" d="M225.36,268.13v20.8h-3.08v-20.76h-7.66v-2.81h18.57v2.77h-7.83Z"/>
      <path class="cls-1" d="M113.71,258.25v2.39h-12.58v-20.26h2.51v17.87h10.07Z"/>
      <path class="cls-1" d="M210.64,288.97h-2.98v-23.61h2.98v23.61Z"/>
      <path class="cls-1" d="M209.7,240.37v20.24h-2.75v-20.24h2.75Z"/>
      <path class="cls-1" d="M89.1,180.94v-38.5h93.45v38.5h-93.45Z"/>
      <path class="cls-1" d="M182.25,97.82v38.48h-93.39v-38.48h93.39Z"/>
    </g>
  </g>
</svg>