<?xml version="1.0" encoding="UTF-8"?>
<svg id="Layer_2" data-name="Layer 2" xmlns="http://www.w3.org/2000/svg" viewBox="0 0 256.28 127.69">
  <defs>
    <style>
      .cls-1 {
        fill: #85c16b;
      }

      .cls-1, .cls-2, .cls-3, .cls-4, .cls-5, .cls-6 {
        stroke-width: 0px;
      }

      .cls-2 {
        fill: #3aaa35;
      }

      .cls-3 {
        fill: #64b145;
      }

      .cls-4 {
        fill: #fff;
      }

      .cls-5 {
        fill: #8dc574;
      }

      .cls-6 {
        fill: #a4d08f;
      }
    </style>
  </defs>
  <g id="Layer_1-2" data-name="Layer 1">
    <g>
      <path class="cls-2" d="M47.77,119.64v6.5c0,.5.25.75.74.75h.49v.54h-4.4v-.4h.47c.46,0,.69-.26.69-.77v-13.81c0-.52-.23-.77-.69-.77h-.47v-.4h6c1.59,0,2.86.4,3.81,1.19.95.8,1.43,1.87,1.43,3.23,0,1.2-.43,2.18-1.28,2.95-.9.78-2.15,1.22-3.74,1.33,1.25.72,2.7,2.32,4.35,4.8,0,.02.15.32.44.91.21.42.38.63.49.63.29,0,.47-.31.52-.94h.34c-.1.63-.35,1.14-.75,1.53-.4.39-.93.56-1.59.51-.38-.03-.81-.58-1.3-1.66-1.9-4.18-3.53-6.23-4.89-6.14l-.37.02-.3-.02ZM47.77,119.05l1.16.02h1.18c2.39,0,3.59-1.03,3.59-3.09,0-2.39-1.24-3.58-3.71-3.58-1.23,0-1.97.24-2.21.73v5.92Z"/>
      <path class="cls-2" d="M58.78,127.36v-.28h.29c.33,0,.5-.18.5-.54v-9.61c0-.36-.17-.54-.5-.54h-.29v-.28h8.06c.02.76.07,1.6.15,2.52h-.26c-.31-1.16-.98-1.74-2-1.74h-2.74c-.68,0-1.02.19-1.02.57v3.7h2.44c.47,0,.8-.07.98-.2.18-.14.3-.4.36-.78h.24v2.77h-.24c-.06-.38-.18-.64-.36-.78-.18-.14-.51-.2-.98-.2h-2.44v4.08c0,.35.22.52.65.52h2.96c.77,0,1.34-.15,1.7-.46.33-.27.57-.73.72-1.38h.28c-.05.46-.1,1.33-.15,2.62h-8.37Z"/>
      <path class="cls-2" d="M80.21,127.08v.28l-2.91.13v-.28c.37,0,.59-.03.65-.1.04-.03.05-.08.05-.15,0-.08-.03-.2-.09-.36l-1.62-3.33h-4.63l-1.46,3.13c-.07.14-.1.28-.1.41,0,.26.31.39.93.39v.28l-2.81-.13v-.28c.53,0,.88-.27,1.05-.8l4.77-10.32h.31l4.92,10.45c.11.25.23.43.35.52.12.1.31.15.58.15ZM75.89,122.41l-1.93-4.03-1.89,4.03h3.82Z"/>
      <path class="cls-2" d="M83.48,116.8v9.25c0,.35.22.52.65.52h2.12c1.06,0,1.73-.61,2.01-1.83h.28c-.07.61-.14,1.48-.22,2.62h-7.02v-.28h.31c.31,0,.46-.18.46-.54v-9.65c0-.36-.15-.54-.45-.54h-.31v-.28h3v.18h-.33c-.33,0-.5.18-.5.54Z"/>
      <path class="cls-2" d="M97.43,127.36v-.4h.42c.47,0,.71-.26.71-.77v-13.73c0-.52-.24-.77-.71-.77h-.42v-.4h11.51c.03,1.09.11,2.29.22,3.6h-.37c-.44-1.65-1.39-2.48-2.85-2.48h-3.91c-.97,0-1.45.27-1.45.82v5.29h3.49c.67,0,1.14-.1,1.4-.29.26-.19.43-.57.52-1.11h.34v3.95h-.34c-.08-.55-.25-.92-.52-1.11-.26-.19-.73-.29-1.4-.29h-3.49v5.83c0,.5.31.75.93.75h4.23c1.1,0,1.91-.22,2.43-.66.48-.39.82-1.04,1.03-1.97h.39c-.07.65-.14,1.9-.22,3.74h-11.95Z"/>
      <path class="cls-2" d="M119.85,124.07c0,1.09-.37,1.95-1.1,2.59s-1.71.95-2.94.95c-.61,0-1.24-.16-1.9-.48-.58-.27-1.02-.58-1.33-.93-.09,0-.22.13-.4.39h-.24v-2.13c.16-.07.38-.17.67-.31.18.72.57,1.34,1.17,1.85.65.55,1.41.82,2.25.82.71,0,1.31-.2,1.78-.61.48-.4.71-.91.71-1.51,0-.69-.24-1.22-.72-1.61-.44-.34-1.19-.64-2.27-.92-1.25-.32-2.14-.71-2.67-1.2-.53-.48-.79-1.14-.79-1.97,0-.91.34-1.66,1.02-2.25.68-.6,1.54-.89,2.58-.89s2.02.39,3.06,1.16c.08,0,.17-.11.26-.33l.02-.05h.28v1.9c-.13.08-.32.2-.58.36-.21-.6-.55-1.11-1.03-1.52-.56-.49-1.2-.74-1.91-.74s-1.32.17-1.76.52c-.44.35-.65.84-.65,1.46,0,1.04.95,1.79,2.85,2.26,1.3.32,2.23.73,2.8,1.23.56.5.85,1.15.85,1.93Z"/>
      <path class="cls-2" d="M126.2,126.49c0,.36.17.54.5.54h.34v.28l-3.12.1v-.28h.34c.33,0,.5-.18.5-.54v-9.7h-1.72c-.96,0-1.54.55-1.72,1.65h-.26c.03-.62.1-1.44.19-2.44h8.5l.05,2.44h-.26c-.21-1.1-.78-1.65-1.72-1.65h-1.64v9.6Z"/>
      <path class="cls-2" d="M142.3,127.08v.28l-2.91.13v-.28c.37,0,.59-.03.65-.1.04-.03.05-.08.05-.15,0-.08-.03-.2-.09-.36l-1.62-3.33h-4.63l-1.46,3.13c-.07.14-.1.28-.1.41,0,.26.31.39.93.39v.28l-2.81-.13v-.28c.53,0,.88-.27,1.05-.8l4.77-10.32h.31l4.92,10.45c.11.25.23.43.35.52.12.1.31.15.58.15ZM137.98,122.41l-1.93-4.03-1.89,4.03h3.82Z"/>
      <path class="cls-2" d="M147.88,126.49c0,.36.17.54.5.54h.34v.28l-3.12.1v-.28h.34c.33,0,.5-.18.5-.54v-9.7h-1.72c-.96,0-1.54.55-1.72,1.65h-.26c.03-.62.1-1.44.19-2.44h8.5l.05,2.44h-.26c-.21-1.1-.78-1.65-1.72-1.65h-1.64v9.6Z"/>
      <path class="cls-2" d="M153.15,127.36v-.28h.29c.33,0,.5-.18.5-.54v-9.61c0-.36-.17-.54-.5-.54h-.29v-.28h8.06c.02.76.07,1.6.15,2.52h-.26c-.31-1.16-.98-1.74-2-1.74h-2.74c-.68,0-1.02.19-1.02.57v3.7h2.44c.47,0,.8-.07.98-.2.18-.14.3-.4.36-.78h.24v2.77h-.24c-.06-.38-.18-.64-.36-.78-.18-.14-.51-.2-.98-.2h-2.44v4.08c0,.35.22.52.65.52h2.96c.77,0,1.34-.15,1.7-.46.33-.27.57-.73.72-1.38h.28c-.05.46-.1,1.33-.15,2.62h-8.37Z"/>
      <path class="cls-2" d="M173.7,113.4v12.23c0,.46.29.69.86.69h2.8c1.39,0,2.28-.81,2.66-2.42h.36c-.09.81-.19,1.96-.3,3.46h-9.28v-.37h.41c.41,0,.61-.24.61-.71v-12.75c0-.48-.2-.71-.59-.71h-.41v-.37h3.96v.24h-.43c-.44,0-.66.24-.66.71Z"/>
      <path class="cls-2" d="M185.19,113.4v12.23c0,.46.29.69.86.69h2.8c1.39,0,2.28-.81,2.66-2.42h.36c-.09.81-.19,1.96-.3,3.46h-9.28v-.37h.41c.41,0,.61-.24.61-.71v-12.75c0-.48-.2-.71-.59-.71h-.41v-.37h3.96v.24h-.43c-.44,0-.66.24-.66.71Z"/>
      <path class="cls-2" d="M195.66,119.91c0,1.95.52,3.56,1.56,4.83,1.04,1.27,2.37,1.9,3.99,1.9,1.08,0,1.98-.28,2.7-.84.72-.56,1.19-1.31,1.42-2.23.05.13.12.4.23.82-.23,1.07-.74,1.88-1.54,2.45-.8.56-1.81.84-3.04.84-2.09,0-3.85-.74-5.28-2.22-1.43-1.48-2.14-3.32-2.14-5.51s.74-3.94,2.23-5.47c1.49-1.52,3.26-2.28,5.32-2.28.68,0,1.43.14,2.25.43.41.17.82.35,1.23.52.2,0,.35-.14.45-.41h.27c0,1.57-.07,2.68-.2,3.33-.97-1.89-2.29-2.84-3.96-2.84s-3.06.6-4.04,1.81c-.98,1.21-1.47,2.82-1.47,4.86Z"/>
    </g>
    <g>
      <path class="cls-4" d="M5.79,95.35h8.18c4.64,0,8.86-.07,10.91-.2v5.18c-2.04-.14-6.27-.27-10.91-.27H0c.14-3.75.27-9.13.27-12.2v-22.29c0-4.7-.14-10.16-.27-12.2h6c-.07,2.04-.2,7.5-.2,12.2v29.79Z"/>
      <path class="cls-4" d="M34.08,92.96c0,2.52.07,5.73.2,7.09h-5.73c.14-1.5.2-4.7.2-7.09v-20.24h-3.14c.75-.82,1.43-2.18,1.98-3.27h6.68c-.14,1.57-.2,4.5-.2,7.02v16.49ZM31.35,56.97c1.77,0,3.14,1.36,3.14,3.2,0,1.7-1.36,3.07-3.14,3.07s-3.14-1.36-3.14-3.07c0-1.84,1.36-3.2,3.14-3.2Z"/>
      <path class="cls-4" d="M42.53,69.45c.27,1.02.75,2.39,1.64,4.36l7.29,17.59,6.61-16.29c1.16-2.73,1.64-4.29,1.98-5.66h5.93c-1.23,2.25-2.59,4.84-3.61,7.23l-10.63,24.4h-1.16l-10.91-24.67c-.95-2.18-2.18-4.77-3.54-6.95h6.41Z"/>
      <path class="cls-4" d="M75.93,92.96c0,2.52.07,5.73.2,7.09h-5.73c.14-1.5.2-4.7.2-7.09v-20.24h-3.14c.75-.82,1.43-2.18,1.98-3.27h6.68c-.14,1.57-.2,4.5-.2,7.02v16.49ZM73.2,56.97c1.77,0,3.14,1.36,3.14,3.2,0,1.7-1.36,3.07-3.14,3.07s-3.14-1.36-3.14-3.07c0-1.84,1.36-3.2,3.14-3.2Z"/>
      <path class="cls-4" d="M94.33,73.2c-4.23,0-7.29,3.41-7.29,8.59v11.18c0,1.91.07,5.11.2,7.09h-5.73c.14-1.98.2-5.18.2-7.09v-20.24h-3.14c.82-1.09,1.36-2.11,1.98-3.27h6.48v4.7c1.43-2.73,4.63-5.25,9.13-5.25,6.61,0,10.56,4.77,10.56,13.36v10.7c0,1.91.07,5.11.27,7.09h-5.73c.14-1.98.2-5.18.2-7.09v-10.77c0-6.2-3.34-9-7.16-9Z"/>
      <path class="cls-4" d="M138.02,68.87c0,1.94-1.02,3.23-3,4.31,1.02,1.13,1.84,2.96,1.84,4.95,0,5.38-5.79,9.75-13.09,9.75-2.93,0-4.57-1.02-6.13-1.02-1.3,0-2.52,1.13-2.52,2.85,0,1.4,1.5,2.75,3.27,2.75.95,0,2.86-.43,5.38-.43,8.32,0,15.27,3.12,15.27,7.81,0,4.2-6.95,7.59-15.4,7.59s-15.34-3.18-15.34-7.48c0-2.69,2.45-4.52,5.32-5.65-2.18-.59-3.48-2.69-3.48-4.36,0-1.88,1.7-4.04,4.5-4.79-2.25-1.67-3.88-4.04-3.88-7,0-5.33,5.73-9.69,13.02-9.69,3.75,0,6.61,1.24,8.59,2.64.68-.48,1.16-1.35,1.16-2.21h4.5ZM123.64,104.47c5.52,0,9.95-1.94,9.95-4.47s-4.57-4.52-10.16-4.52-9.81,1.94-9.81,4.42,4.43,4.58,10.02,4.58ZM123.71,84.54c4.29,0,7.84-2.91,7.84-6.41s-3.54-6.3-7.84-6.3-7.63,2.8-7.63,6.3,3.48,6.41,7.63,6.41Z"/>
      <path class="cls-4" d="M174.55,53.36c4.7,0,9.68-.07,11.79-.2v5.04c-2.11-.14-7.09-.27-11.79-.27h-4.77c-.07,2.52-.07,6-.07,8.79v21.13c0,4.63.07,10.09.27,12.2h-6.07c.14-2.11.2-7.57.2-12.2v-21.13c0-2.8-.07-6.27-.2-8.79h-4.7c-4.64,0-9.54.14-11.66.27v-5.04c2.11.14,7.02.2,11.66.2h15.34Z"/>
      <path class="cls-4" d="M196.09,69.24v5.79c-1.23-.75-2.73-1.16-4.43-1.16-3.75,0-7.02,4.63-7.02,9.54v9.61c0,2.32.07,4.7.27,7.02h-5.73c.14-2.32.21-4.7.21-7.02v-20.31h-3.13c.75-.95,1.43-2.25,1.84-3.27h6.13v6.95c1.16-4.57,4.57-7.5,8.18-7.5,2.04,0,2.73.34,3.68.34Z"/>
      <path class="cls-4" d="M201.82,84.44c-.2,6.2,4.29,11.86,10.91,11.86,3.82,0,6.41-.54,9.41-2.52v5.04c-2.32.27-4.43,1.77-10.22,1.77-9,0-15.54-6.88-15.54-15.75s6.41-15.88,14.45-15.88c9.54,0,14.11,8.79,14.11,14.31,0,.41-.07.95-.14,1.16h-22.97ZM201.95,80.69h17.38c-.41-3.54-3.61-7.77-8.52-7.77-4.5,0-7.77,3.41-8.86,7.77Z"/>
      <path class="cls-4" d="M233.17,84.44c-.2,6.2,4.29,11.86,10.91,11.86,3.82,0,6.41-.54,9.41-2.52v5.04c-2.32.27-4.43,1.77-10.22,1.77-9,0-15.54-6.88-15.54-15.75s6.41-15.88,14.45-15.88c9.54,0,14.11,8.79,14.11,14.31,0,.41-.07.95-.14,1.16h-22.97ZM233.31,80.69h17.38c-.41-3.54-3.61-7.77-8.52-7.77-4.5,0-7.77,3.41-8.86,7.77Z"/>
    </g>
    <path class="cls-6" d="M156.23,49.67c-15.47.1-18.32-25.04-17.96-36.5,3.69,8.72,12.84,7.14,18.21,12.93,5.01,5.4,3.84,17.5-.03,23.21l-.22.36Z"/>
    <path class="cls-3" d="M163.24,44.21c-3.68-4.99-7.25-10.21-7.11-16.77.16-7.02,6-13.84,6.52-18.18.58,4.15,7.67,13.12,7.76,19.99.06,5.5-4.4,10.51-7.17,14.96"/>
    <path class="cls-6" d="M211.94,23.53s-6.12,2.96-9.36,11.77c-3.23,8.81-15.06,16.85-18.05,9.62-2.99-7.22,3.99-14.27,8.95-16.59,4.96-2.32,14.28-4.77,18.46-4.8Z"/>
    <path class="cls-3" d="M170.06,38.69c.04-7.61.37-15.38,5.32-21.73,5.29-6.79,13.92-8.68,19.76-13.12-6.13,5.75-2.06,18.56-7.02,25.38-3.98,5.47-12.06,7.12-18.05,9.47Z"/>
    <path class="cls-1" d="M165.28,0s.92,4.25,5.91,7.59c5,3.33,8.21,11.9,3.27,12.67-4.94.77-8.28-4.63-8.97-8.06-.7-3.44-.82-9.6-.21-12.2Z"/>
    <path class="cls-5" d="M164.52,46.43c9.56,9.93,19.12-9.47,27.51-9.97-14.55-.14-17.58-.09-27.51,9.97Z"/>
  </g>
</svg>